<mxfile host="app.diagrams.net" modified="2022-03-01T12:12:21.634Z" agent="5.0 (Macintosh)" etag="Bf9nUQlUeEAD0OhmPjMo" version="16.6.4" type="github">
  <diagram id="m3M9mRNQD40Klt9jGWwE" name="Page-1">
    <mxGraphModel dx="1186" dy="765" grid="1" gridSize="10" guides="1" tooltips="1" connect="1" arrows="1" fold="1" page="1" pageScale="1" pageWidth="827" pageHeight="1169" math="0" shadow="0">
      <root>
        <mxCell id="0" />
        <mxCell id="1" parent="0" />
        <mxCell id="sJdMNd6Z7B1JLi54mTuW-1" value="Prism Central" style="rounded=1;whiteSpace=wrap;html=1;" vertex="1" parent="1">
          <mxGeometry x="250" y="180" width="120" height="60" as="geometry" />
        </mxCell>
        <mxCell id="sJdMNd6Z7B1JLi54mTuW-2" value="TP-NTNX" style="rounded=1;whiteSpace=wrap;html=1;" vertex="1" parent="1">
          <mxGeometry x="320" y="80" width="120" height="60" as="geometry" />
        </mxCell>
        <mxCell id="sJdMNd6Z7B1JLi54mTuW-3" value="ALM-NTNX" style="rounded=1;whiteSpace=wrap;html=1;" vertex="1" parent="1">
          <mxGeometry x="460" y="80" width="120" height="60" as="geometry" />
        </mxCell>
        <mxCell id="sJdMNd6Z7B1JLi54mTuW-4" value="***-NTNX" style="rounded=1;whiteSpace=wrap;html=1;" vertex="1" parent="1">
          <mxGeometry x="600" y="80" width="120" height="60" as="geometry" />
        </mxCell>
        <mxCell id="sJdMNd6Z7B1JLi54mTuW-5" value="Hycu appliance" style="ellipse;whiteSpace=wrap;html=1;aspect=fixed;" vertex="1" parent="1">
          <mxGeometry x="374" y="370" width="80" height="80" as="geometry" />
        </mxCell>
        <mxCell id="sJdMNd6Z7B1JLi54mTuW-6" value="" style="endArrow=classic;html=1;rounded=0;entryX=0.558;entryY=1.05;entryDx=0;entryDy=0;entryPerimeter=0;" edge="1" parent="1" target="sJdMNd6Z7B1JLi54mTuW-1">
          <mxGeometry width="50" height="50" relative="1" as="geometry">
            <mxPoint x="410" y="360" as="sourcePoint" />
            <mxPoint x="420" y="300" as="targetPoint" />
          </mxGeometry>
        </mxCell>
        <mxCell id="sJdMNd6Z7B1JLi54mTuW-7" value="" style="endArrow=classic;html=1;rounded=0;entryX=0.75;entryY=1;entryDx=0;entryDy=0;" edge="1" parent="1" target="sJdMNd6Z7B1JLi54mTuW-2">
          <mxGeometry width="50" height="50" relative="1" as="geometry">
            <mxPoint x="420" y="360" as="sourcePoint" />
            <mxPoint x="470" y="310" as="targetPoint" />
          </mxGeometry>
        </mxCell>
        <mxCell id="sJdMNd6Z7B1JLi54mTuW-8" value="&lt;div&gt;Target + library&lt;/div&gt;&lt;div&gt;(W2K19)&lt;/div&gt;&lt;div&gt;(QStar)&lt;br&gt;&lt;/div&gt;" style="ellipse;whiteSpace=wrap;html=1;" vertex="1" parent="1">
          <mxGeometry x="580" y="400" width="120" height="80" as="geometry" />
        </mxCell>
        <mxCell id="sJdMNd6Z7B1JLi54mTuW-9" value="" style="endArrow=classic;startArrow=classic;html=1;rounded=0;entryX=0;entryY=0.5;entryDx=0;entryDy=0;exitX=1;exitY=0.638;exitDx=0;exitDy=0;exitPerimeter=0;" edge="1" parent="1" source="sJdMNd6Z7B1JLi54mTuW-5" target="sJdMNd6Z7B1JLi54mTuW-8">
          <mxGeometry width="50" height="50" relative="1" as="geometry">
            <mxPoint x="440" y="560" as="sourcePoint" />
            <mxPoint x="490" y="510" as="targetPoint" />
          </mxGeometry>
        </mxCell>
      </root>
    </mxGraphModel>
  </diagram>
</mxfile>
